#!OML:ASF E:/inclinewalkrobotboard/Project1/Captureday1/Session1/subject1.ASF
:FULLY-SPECIFIED
:DEGREES
77
root 0 0 0 -2.120411147677686 -3.753266741261775 0.49752478901076674
lowerback 7.611725024563885 1.593906091579055 -2.532998025303703
upperback 1.8801925747604105 1.975834918256497 -0.06044439706524307
thorax -2.3541239495796398 1.0386555799893245 1.2434315560001385
lowerneck -9.314897014537392 -5.532049349044697 -6.429835246046638
upperneck 30.976435034992413 -8.648032533058865 6.120502137130044
head 11.595179348338172 -3.9448160685619587 2.0415538235961757
rclavicle -1.4966716661394224E-15 1.4697906727473791E-15
rhumerus -8.648953999002128 2.2226973351450585 -79.71192374351523
rradius 49.216680223435304
rwrist -20.790164316740483
rhand -42.04821467743995 16.103800135112987
rfingers 7.125019999999945
rthumb -14.889417784488263 -13.308408525819985
lclavicle -5.8156342662175415E-15 1.0852274353581888E-15
lhumerus -30.942555949934608 11.93474493972797 77.1175174620553
lradius 24.79888899581093
lwrist -4.80820771314414
lhand -24.42751495898825 21.8140711499533
lfingers 7.125019999999956
lthumb 2.067652458251104 51.75545137781319
rfemur -3.41549806762449 8.10967098308958 33.942208394756626
rtibia 31.62986494080021
rfoot -17.619988864606064 -9.38507911257766
rtoes 4.296034487185367
lfemur -29.772549355068882 1.2910527238764011 -14.598230180605896
ltibia 41.39600215819172
lfoot -3.487509653393956 -6.030381835164183
ltoes -3.7643500720024945
78
root 0 0 0 -2.134104364152474 -3.778511083885146 0.49370335082452516
lowerback 7.6112092173446335 1.5839011116086354 -2.5309687508475975
upperback 1.8632243820302583 1.963173554595693 -0.053881823677907614
thorax -2.3723156065811524 1.0318438906287446 1.251369040021363
lowerneck -9.347823036671615 -5.524002433128094 -6.406830609742789
upperneck 31.0285379692919 -8.6397169050923 6.087046549511454
head 11.611066635010737 -3.940483125667538 2.028948338889389
rclavicle -1.4288471880852634E-15 1.4144620700484589E-15
rhumerus -8.341387917643917 1.8673503336467228 -79.62862225572857
rradius 48.85282222677354
rwrist -20.6911698181058
rhand -42.052162869395005 16.196424976824375
rfingers 7.125019999999943
rthumb -14.890570737862774 -13.213514557209411
lclavicle -5.773196815477989E-15 9.73655046880027E-16
lhumerus -30.856300506143164 11.871759303526302 77.26133260743767
lradius 24.84672650234581
lwrist -4.739458880373835
lhand -24.396736669661387 21.822233392063016
lfingers 7.125019999999956
lthumb 2.0970752242722446 51.76328178160511
rfemur -6.383810701599678 7.977370054378646 33.57126410027933
rtibia 33.438184363823
rfoot -16.350414166525937 -9.580736457548081
rtoes 4.811310300538785
lfemur -28.67907563433192 1.5672430836242661 -15.02850261787264
ltibia 43.20892605285208
lfoot -3.2450241967381714 -6.748825895582412
ltoes -3.7412710718566524
79
root 0 0 0 -2.1542233808049316 -3.8127306439209185 0.4894764571791776
lowerback 7.6016592544974895 1.5720260889600337 -2.5277267462866915
upperback 1.8438334702326475 1.9483093486937442 -0.046838772110204596
thorax -2.387580324188564 1.023929342884618 1.259623378540168
lowerneck -9.376724018303461 -5.5139913060641605 -6.3806666316727005
upperneck 31.093769609452004 -8.631086434035034 6.043787823265369
head 11.630115412337146 -3.9359718762874794 2.0120905004237537
rclavicle -1.4156840927479818E-15 1.3572725778998754E-15
rhumerus -8.039985498999346 1.5418488366751366 -79.53641108636674
rradius 48.55192644458274
rwrist -20.611114077740545
rhand -42.0420495324486 16.26090134411207
rfingers 7.1250199999999415
rthumb -14.87872907115045 -13.147488430093832
lclavicle -5.763354117572834E-15 8.469883604845226E-16
lhumerus -30.751771685109592 11.78778868945 77.43880461971612
lradius 24.903034448865704
lwrist -4.658504186666182
lhand -24.35078981823165 21.836651011445817
lfingers 7.125019999999954
lthumb 2.1409944267210896 51.77715186459207
rfemur -9.644794964135796 7.831135049699592 33.18113170071596
rtibia 35.334669105416644
rfoot -14.967484576291351 -9.743566590199947
rtoes 5.377308995994916
lfemur -27.39663247837696 1.9353021469588043 -15.433876072691469
ltibia 45.724674704383396
lfoot -3.027492042450543 -7.486866107618878
ltoes -3.922428826108383
80
root 0 0 0 -2.1998319776554083 -3.8783985623318915 0.4812511848169116
lowerback 7.56580405130794 1.551595086672128 -2.519050620609798
upperback 1.806282763769901 1.9232656622502726 -0.036219405730142706
thorax -2.406330966479597 1.0105437242971014 1.2703769016818747
lowerneck -9.419995417611142 -5.494822820243917 -6.335114144421714
upperneck 31.213476417379038 -8.616527713765386 5.95707083628071
head 11.66478878169261 -3.928084249406888 1.9775677635724285
rclavicle -1.5484107447414439E-15 1.2898889684124312E-15
rhumerus -7.686626276580686 1.1996112338395037 -79.4098658066074
rradius 48.29537168445516
rwrist -20.566574933407356
rhand -41.99997034055052 16.272622356719186
rfingers 7.12501999999994
rthumb -14.836892110750497 -13.13509482723454
lclavicle -5.834361463041938E-15 6.679714797960127E-16
lhumerus -30.58898193507323 11.64845940155564 77.71794680264905
lradius 24.986665787461284
lwrist -4.538452113491556
lhand -24.266602465126873 21.86491692514904
lfingers 7.125019999999953
lthumb 2.221441657108723 51.80441715037774
rfemur -13.842687723528133 7.606408781106283 32.794541415498834
rtibia 37.7212898978101
rfoot -13.21906324017073 -9.77440327347523
rtoes 6.284760425022265
lfemur -25.54267371596123 2.565990484798718 -15.79095818395887
ltibia 50.416036652372334
lfoot -2.7560235565459372 -8.293898397434583
ltoes -4.5542397058283735
81
root 0 0 0 -2.2347558194994055 -3.9188899842795064 0.4752146525676642
lowerback 7.529485538057667 1.540232913469584 -2.510372719363834
upperback 1.7803221216694665 1.9099783978746525 -0.031066689957818694
thorax -2.4120976402675804 1.0033124165360934 1.2733472136013155
lowerneck -9.443629112510786 -5.481361743593577 -6.307101564546304
upperneck 31.286683022988182 -8.606643161011128 5.8961496539687595
head 11.686224718307983 -3.922608208016208 1.953076905894829
rclavicle -1.723288520808296E-15 1.275626209743963E-15
rhumerus -7.580200158530115 1.1335084976936045 -79.35576753947228
rradius 48.33887521141069
rwrist -20.582841559510044
rhand -41.97015506238622 16.21069792437761
rfingers 7.125019999999939
rthumb -14.809401939081182 -13.197451949106663
lclavicle -5.904588385508785E-15 6.076104023791768E-16
lhumerus -30.48648068380879 11.541962782826682 77.90183528643325
lradius 25.025986789296432
lwrist -4.4823372229767875
lhand -24.17900524831242 21.895952497544634
lfingers 7.125019999999952
lthumb 2.3053510703100564 51.834421773770345
rfemur -15.215234174198478 7.520426443448412 32.73653371509484
rtibia 38.259323491042444
rfoot -12.756231806302596 -9.679804401673259
rtoes 6.795744658570467
lfemur -24.79906795216951 2.9543385116895724 -15.670332654810567
ltibia 53.58811378915142
lfoot -2.704275100151863 -8.32778138271072
ltoes -5.156575940608001
82
root 0 0 0 -2.2661033597887132 -3.9433962273399437 0.46993475849534677
lowerback 7.486021631146599 1.534781027560459 -2.4992085111583573
upperback 1.760125849009484 1.9048323393812252 -0.02891739714210939
thorax -2.4072146245150012 1.0002831206303657 1.270705204641029
lowerneck -9.455448633005364 -5.469337195104045 -6.287301789559948
upperneck 31.33903079130784 -8.59776152874725 5.84461862209163
head 11.701976512762807 -3.9176702051266856 1.9321309067942987
rclavicle -1.990043645338733E-15 1.2956606254497565E-15
rhumerus -7.638031277528182 1.2591397131120292 -79.3477282371188
rradius 48.57207979424526
rwrist -20.666708831020937
rhand -41.93835834861966 16.09004811861783
rfingers 7.125019999999939
rthumb -14.781422987056763 -13.319876737920957
lclavicle -6.012360724508912E-15 5.581217516056167E-16
lhumerus -30.41122870359315 11.44344202397648 78.0456647164501
lradius 25.04443857703955
lwrist -4.455973952338793
lhand -24.084028652832178 21.931785523874847
lfingers 7.125019999999951
lthumb 2.396492034355126 51.86909961916992
rfemur -15.288240058340682 7.524483036853543 32.77986045257495
rtibia 37.80410329747856
rfoot -12.930749845939529 -9.580018886242666
rtoes 7.124456330740459
lfemur -24.62784307469104 3.2990169650028385 -15.238746272041345
ltibia 56.40852159561384
lfoot -2.8917296723110457 -7.8897894707596326
ltoes -5.851126645236893
83
root 0 0 0 -2.287060377466133 -3.9507920644253005 0.46694482740380644
lowerback 7.445318118930676 1.5354032291440387 -2.4883091233013883
upperback 1.7511522233950085 1.9075352840242576 -0.029853585903041324
thorax -2.3919091405241737 1.001466314516721 1.2639788695926222
lowerneck -9.448017071821305 -5.4610032335385545 -6.2789323876634215
upperneck 31.360120443653955 -8.591958840615131 5.813143291578212
head 11.708031689784786 -3.914566119749243 1.919021567559358
rclavicle -2.253548660166389E-15 1.3150784056053923E-15
rhumerus -7.8987409277475 1.603542436423787 -79.3970782826895
rradius 49.010549011648635
rwrist -20.813567417864164
rhand -41.900167826335085 15.913066213105298
rfingers 7.125019999999941
rthumb -14.748739449339624 -13.500399035093782
lclavicle -6.124168166572663E-15 5.553805791341958E-16
lhumerus -30.37746090621654 11.370921870255648 78.12362820323418
lradius 25.04299546278152
lwrist -4.457219912448163
lhand -24.005330809294026 21.96538651453294
lfingers 7.12501999999995
lthumb 2.4721409452759735 51.901659279605944
rfemur -14.02544699758191 7.624202358330706 32.88911073482987
rtibia 36.40403745745324
rfoot -13.764288794496567 -9.530317960018984
rtoes 7.190017823591328
lfemur -24.93454576490323 3.5872458882300773 -14.637299972707849
ltibia 58.6179953249913
lfoot -3.334787631462083 -7.125532594915738
ltoes -6.549656042467056
